<?xml version="1.0" standalone="no"?>
<!DOCTYPE svg PUBLIC "-//W3C//DTD SVG 20010904//EN"
 "http://www.w3.org/TR/2001/REC-SVG-20010904/DTD/svg10.dtd">
<svg version="1.0" xmlns="http://www.w3.org/2000/svg"
 width="1024.000000pt" height="1024.000000pt" viewBox="0 0 1024.000000 1024.000000"
 preserveAspectRatio="xMidYMid meet">

<g transform="translate(0.000000,1024.000000) scale(0.100000,-0.100000)"
fill="#000000" stroke="none">
<path d="M4732 8725 c-103 -23 -168 -58 -242 -133 -65 -66 -69 -69 -136 -80
-81 -13 -190 -65 -253 -119 -97 -82 -171 -222 -171 -322 0 -34 -3 -37 -59 -63
-71 -33 -173 -138 -213 -218 -72 -145 -76 -302 -12 -448 21 -47 22 -55 9 -85
-109 -263 87 -589 387 -639 53 -9 96 -7 261 14 l198 25 41 -20 41 -21 151 22
c181 26 215 27 223 6 4 -12 -123 -685 -143 -755 -3 -12 -15 -6 -49 28 -27 27
-49 42 -56 37 -8 -4 -9 -3 -5 4 13 22 -276 241 -483 366 -287 172 -642 320
-958 400 -66 17 -105 11 -117 -19 -3 -9 -6 -415 -6 -901 0 -944 -1 -930 47
-949 10 -3 70 -20 133 -36 518 -135 1098 -403 1540 -713 47 -33 106 -77 133
-99 l47 -39 0 825 0 826 -41 48 c-23 26 -46 50 -50 51 -19 7 -8 20 22 26 44 9
76 46 223 262 71 104 148 216 170 248 51 74 71 80 163 54 50 -14 92 -18 159
-16 81 3 98 7 165 40 95 47 159 113 205 214 19 41 39 72 44 69 19 -12 149 17
216 49 168 79 283 272 272 453 -4 58 -13 88 -41 147 l-37 74 27 58 c23 50 28
76 31 167 3 61 -1 127 -7 152 -31 121 -121 243 -231 311 -54 33 -58 38 -64 82
-3 25 -23 80 -43 121 -72 147 -220 260 -377 290 -42 8 -63 17 -74 33 -34 50
-100 103 -171 137 -67 32 -85 36 -153 36 -66 0 -80 -3 -101 -23 -33 -31 -41
-66 -23 -101 14 -26 20 -29 88 -33 119 -8 215 -65 272 -162 l25 -43 78 -5 c96
-6 165 -38 233 -109 48 -50 93 -131 103 -185 l6 -31 -107 -6 c-125 -6 -197
-26 -268 -73 -70 -46 -109 -104 -109 -161 0 -35 5 -48 25 -63 44 -34 99 -19
124 34 38 80 115 106 315 106 159 0 171 -4 227 -65 51 -58 79 -133 79 -215 0
-83 -21 -165 -39 -151 -34 27 -223 71 -303 71 -80 0 -119 -70 -70 -124 19 -21
34 -25 102 -31 161 -12 246 -56 297 -154 71 -136 0 -326 -147 -396 -46 -21
-71 -26 -155 -28 -62 -1 -100 2 -100 8 0 6 9 29 20 53 28 61 34 108 20 143
-23 55 -96 72 -133 31 -8 -10 -22 -44 -31 -77 -10 -33 -34 -84 -54 -114 -30
-44 -49 -60 -102 -85 -59 -27 -77 -31 -185 -34 l-120 -4 -58 -107 c-122 -226
-397 -705 -397 -692 0 12 131 607 180 814 15 66 17 93 9 108 -16 30 -53 40
-103 29 -158 -35 -440 -78 -461 -70 -55 21 -59 83 -10 164 58 96 195 347 346
631 78 149 182 341 230 428 49 90 95 186 104 222 23 84 17 200 -14 272 -45
104 -189 208 -320 233 -69 13 -111 12 -189 -5z m153 -156 c102 -19 202 -84
226 -146 16 -44 10 -135 -14 -193 -27 -64 -223 -427 -450 -830 -241 -428 -267
-481 -267 -539 l0 -49 -72 -13 c-40 -7 -125 -13 -188 -14 -134 0 -167 12 -239
90 -68 74 -114 198 -94 252 l8 22 47 -29 c79 -49 156 -70 258 -70 83 0 93 2
115 25 32 31 33 74 3 103 -18 16 -44 23 -121 31 -115 12 -171 36 -237 101 -75
73 -95 126 -95 245 0 86 3 106 24 145 60 114 120 161 219 171 35 4 69 12 75
18 8 8 12 51 12 119 0 99 2 111 30 166 33 66 93 123 163 157 35 17 73 24 147
28 l100 6 30 57 c39 74 67 102 129 133 55 28 100 31 191 14z m-1728 -1961 c-3
-7 -5 -2 -5 12 0 14 2 19 5 13 2 -7 2 -19 0 -25z m2741 -34 c-41 -69 -148
-124 -241 -124 -47 0 -157 24 -157 35 0 2 4 15 9 28 8 22 17 24 88 30 85 7
173 35 218 71 27 22 30 22 65 7 l37 -15 -19 -32z m-2741 -51 c-3 -10 -5 -4 -5
12 0 17 2 24 5 18 2 -7 2 -21 0 -30z m0 -190 c-2 -32 -3 -6 -3 57 0 63 1 89 3
58 2 -32 2 -84 0 -115z m0 -125 c-2 -13 -4 -3 -4 22 0 25 2 35 4 23 2 -13 2
-33 0 -45z m0 -105 c-2 -16 -4 -3 -4 27 0 30 2 43 4 28 2 -16 2 -40 0 -55z m0
-100 c-2 -16 -4 -5 -4 22 0 28 2 40 4 28 2 -13 2 -35 0 -50z m0 -70 c-3 -10
-5 -4 -5 12 0 17 2 24 5 18 2 -7 2 -21 0 -30z m0 -120 c-2 -21 -4 -6 -4 32 0
39 2 55 4 38 2 -18 2 -50 0 -70z m1660 -25 c-3 -8 -6 -5 -6 6 -1 11 2 17 5 13
3 -3 4 -12 1 -19z m-1660 -85 c-2 -16 -4 -5 -4 22 0 28 2 40 4 28 2 -13 2 -35
0 -50z m1770 21 c-3 -3 -12 -4 -19 -1 -8 3 -5 6 6 6 11 1 17 -2 13 -5z m-1770
-76 c-3 -8 -6 -5 -6 6 -1 11 2 17 5 13 3 -3 4 -12 1 -19z m0 -115 c-3 -10 -5
-4 -5 12 0 17 2 24 5 18 2 -7 2 -21 0 -30z m0 -105 c-3 -7 -5 -2 -5 12 0 14 2
19 5 13 2 -7 2 -19 0 -25z m0 -130 c-3 -8 -6 -5 -6 6 -1 11 2 17 5 13 3 -3 4
-12 1 -19z m0 -150 c-3 -8 -6 -5 -6 6 -1 11 2 17 5 13 3 -3 4 -12 1 -19z m0
-140 c-3 -8 -6 -5 -6 6 -1 11 2 17 5 13 3 -3 4 -12 1 -19z m0 -40 c-3 -8 -6
-5 -6 6 -1 11 2 17 5 13 3 -3 4 -12 1 -19z"/>
<path d="M4577 8166 c-104 -43 -180 -115 -213 -202 -16 -43 -16 -57 2 -200 7
-57 -7 -79 -54 -90 -81 -18 -104 -27 -122 -46 -26 -28 -26 -82 0 -108 56 -56
235 9 305 110 41 59 48 99 30 176 -18 79 -9 127 32 166 37 34 86 58 118 58 39
0 62 16 74 50 12 35 1 75 -27 96 -26 20 -81 16 -145 -10z"/>
<path d="M6905 6715 c-240 -71 -428 -151 -702 -300 -424 -231 -656 -402 -916
-675 l-107 -113 0 -836 c0 -460 4 -831 8 -825 15 24 235 182 369 265 415 259
929 483 1333 581 127 31 159 42 172 62 4 6 8 421 8 922 0 870 -1 912 -18 927
-24 22 -51 21 -147 -8z"/>
<path d="M2844 3650 c-55 -22 -79 -93 -50 -149 43 -81 184 -59 201 32 16 84
-70 150 -151 117z"/>
<path d="M4467 3654 c-4 -4 -7 -87 -7 -185 l0 -178 -66 35 c-58 30 -74 34
-143 34 -127 0 -219 -46 -285 -144 -50 -73 -69 -150 -64 -255 5 -108 39 -188
106 -254 72 -70 128 -92 237 -92 94 1 123 10 192 61 l32 24 3 -37 3 -38 85 0
85 0 0 515 0 515 -85 3 c-47 1 -89 0 -93 -4z m-80 -480 c15 -11 38 -40 51 -65
20 -38 23 -56 20 -136 -3 -85 -5 -94 -34 -130 -56 -70 -140 -92 -221 -58 -79
33 -112 92 -113 198 0 101 36 171 105 203 45 21 157 14 192 -12z"/>
<path d="M7088 3644 c-36 -19 -48 -43 -48 -94 0 -90 107 -135 179 -74 100 83
-15 231 -131 168z"/>
<path d="M5018 3625 c-140 -38 -227 -142 -228 -270 0 -86 14 -127 65 -183 52
-57 97 -79 254 -122 171 -46 206 -71 206 -144 0 -86 -77 -142 -184 -134 -79 6
-131 35 -156 86 l-20 42 -89 0 -89 0 5 -44 c15 -131 145 -229 319 -243 145
-11 263 28 337 112 49 56 72 119 72 199 0 75 -24 130 -74 174 -51 45 -97 66
-217 102 -57 17 -129 43 -159 58 -46 22 -57 34 -67 65 -27 83 35 147 142 147
80 0 124 -23 150 -77 l20 -42 93 -1 92 0 -1 28 c-2 69 -64 167 -133 207 -90
53 -231 70 -338 40z"/>
<path d="M1620 3583 c0 -21 -9 -182 -19 -358 -11 -176 -23 -384 -27 -462 l-7
-143 91 0 c78 0 91 2 96 18 2 9 10 153 17 320 7 166 15 302 18 302 3 -1 60
-111 125 -245 l120 -245 80 0 81 0 14 33 c8 17 45 97 81 177 36 80 79 175 96
212 16 37 32 68 37 68 4 0 7 -19 8 -42 0 -24 8 -167 17 -318 l17 -275 93 -3
92 -3 0 43 c0 24 -11 237 -25 473 -14 237 -25 443 -25 458 l0 28 -106 -3 -106
-3 -136 -317 c-75 -175 -139 -318 -142 -318 -3 0 -67 143 -142 318 l-137 317
-105 3 -106 3 0 -38z"/>
<path d="M8270 3450 l0 -100 -65 0 -66 0 3 -72 3 -73 63 -3 62 -3 0 -198 c0
-234 9 -280 69 -334 49 -44 119 -62 214 -54 39 3 74 10 78 14 4 4 9 40 10 78
l2 70 -52 -3 c-63 -5 -105 11 -120 44 -7 16 -11 92 -11 204 l0 180 90 0 90 0
0 75 0 75 -90 0 -90 0 0 100 0 100 -95 0 -95 0 0 -100z"/>
<path d="M6833 3359 c-56 -10 -95 -32 -126 -69 l-26 -30 -3 42 -3 43 -83 5
c-46 3 -86 3 -88 1 -2 -2 -4 -168 -4 -368 l0 -364 88 3 87 3 6 235 c3 129 6
236 7 237 58 74 118 103 214 103 l48 0 0 68 c0 37 -4 72 -8 78 -10 16 -61 22
-109 13z"/>
<path d="M7737 3359 c-49 -8 -123 -45 -148 -75 -13 -16 -14 -13 -19 25 l-5 43
-80 0 -80 0 -3 -366 -2 -367 92 3 93 3 5 252 c5 248 5 252 29 277 64 68 187
57 238 -21 16 -23 19 -60 23 -268 l5 -240 90 0 90 0 0 260 c0 230 -2 266 -19
309 -47 122 -166 186 -309 165z"/>
<path d="M3217 3352 l-77 -3 2 -362 3 -362 85 0 85 0 5 245 c6 276 9 288 78
317 46 19 124 13 160 -14 53 -39 57 -58 60 -316 l3 -238 87 3 87 3 0 270 0
270 -28 58 c-46 92 -126 137 -249 137 -80 0 -129 -18 -175 -62 l-33 -32 0 41
c0 23 -3 43 -7 45 -5 2 -43 2 -86 0z"/>
<path d="M5925 3344 c-22 -8 -57 -28 -77 -45 l-38 -30 0 41 0 40 -85 0 -85 0
2 -507 3 -508 85 0 85 0 3 177 2 178 40 -29 c84 -61 228 -67 333 -15 112 54
180 161 193 302 16 166 -61 319 -194 383 -60 30 -205 37 -267 13z m193 -173
c101 -71 108 -268 13 -354 -89 -81 -236 -55 -286 49 -23 49 -31 151 -15 200
17 53 56 103 94 120 48 22 154 14 194 -15z"/>
<path d="M7063 3347 c-3 -5 -5 -169 -4 -365 l1 -357 88 0 87 0 3 362 2 362
-86 3 c-47 2 -88 -1 -91 -5z"/>
<path d="M2800 2985 l0 -366 88 3 87 3 3 363 2 362 -90 0 -90 0 0 -365z"/>
<path d="M3390 2091 l0 -79 -37 20 c-116 59 -237 -79 -175 -202 36 -73 130
-103 186 -59 l27 21 6 -21 c3 -14 13 -21 29 -21 l24 0 0 210 0 210 -30 0 -30
0 0 -79z m-25 -126 c44 -43 29 -133 -26 -155 -40 -17 -80 -1 -102 41 -49 93
56 187 128 114z"/>
<path d="M1870 2142 c-44 -21 -64 -62 -55 -109 9 -47 45 -79 108 -93 81 -20
107 -36 107 -69 0 -39 -33 -66 -82 -66 -33 0 -45 6 -69 33 -28 31 -79 45 -79
22 0 -30 35 -73 73 -91 53 -24 101 -24 154 0 50 23 63 45 63 104 0 38 -5 49
-31 71 -17 14 -56 33 -87 42 -66 19 -92 38 -92 69 0 55 82 74 126 30 26 -26
74 -34 74 -12 0 23 -32 59 -66 73 -45 19 -102 18 -144 -4z"/>
<path d="M3670 2001 c0 -159 0 -160 27 -192 52 -61 135 -76 213 -36 70 35 80
64 80 240 l0 147 -32 0 -33 0 0 -156 -1 -156 -27 -24 c-47 -40 -133 -28 -156
23 -6 14 -11 84 -11 168 l0 145 -30 0 -30 0 0 -159z"/>
<path d="M4551 2139 c6 -12 38 -65 70 -117 l59 -96 0 -88 0 -88 33 0 32 0 -3
82 -3 83 75 123 75 123 -36 -3 c-35 -3 -40 -8 -89 -92 l-52 -89 -53 92 c-51
86 -56 91 -87 91 -30 0 -32 -2 -21 -21z"/>
<path d="M5940 1955 l0 -205 125 0 125 0 0 25 c0 25 0 25 -95 25 l-95 0 0 180
0 180 -30 0 -30 0 0 -205z"/>
<path d="M7493 2144 c-6 -17 6 -45 23 -51 21 -7 47 23 40 45 -9 27 -53 30 -63
6z"/>
<path d="M2160 1840 l0 -206 30 -2 30 -2 0 80 0 80 33 -20 c42 -26 86 -25 128
3 118 79 72 270 -65 270 -25 0 -56 -7 -70 -16 -32 -21 -36 -21 -36 1 0 12 -8
17 -25 17 l-25 0 0 -205z m205 125 c37 -36 35 -97 -4 -136 -39 -38 -74 -38
-113 1 -28 28 -30 36 -25 78 6 55 33 82 84 82 23 0 42 -8 58 -25z"/>
<path d="M2609 2040 c-47 -14 -69 -31 -89 -70 -25 -49 -25 -83 -1 -137 39 -84
143 -109 216 -52 24 20 25 22 10 39 -16 18 -18 18 -52 -2 -48 -29 -99 -16
-126 30 l-19 32 115 0 114 0 -7 40 c-16 87 -88 142 -161 120z m88 -72 c41 -39
31 -48 -56 -48 -44 0 -82 4 -85 9 -3 5 5 20 19 35 31 34 88 36 122 4z"/>
<path d="M2935 2038 c-75 -21 -114 -95 -93 -179 26 -100 142 -141 223 -77 25
19 25 21 9 39 -16 17 -19 18 -34 4 -10 -9 -33 -18 -52 -21 -27 -5 -40 -1 -66
21 -56 47 -45 55 78 55 123 0 126 3 96 73 -28 66 -97 103 -161 85z m92 -70
c42 -39 31 -48 -57 -48 -87 0 -96 7 -58 47 28 30 83 31 115 1z"/>
<path d="M4074 2035 c-3 -6 -3 -98 -2 -205 l3 -195 29 0 29 0 -1 77 -1 77 32
-20 c40 -24 83 -24 126 -1 90 48 94 193 8 256 -35 26 -108 27 -135 3 -24 -22
-32 -21 -32 2 0 14 -7 19 -26 17 -15 0 -28 -6 -30 -11z m201 -70 c37 -36 35
-97 -4 -136 -35 -35 -71 -37 -105 -6 -24 21 -29 41 -27 100 2 64 88 91 136 42z"/>
<path d="M4980 2038 c-65 -18 -100 -68 -100 -143 0 -64 23 -103 73 -126 50
-22 86 -24 131 -5 122 51 107 231 -23 275 -38 13 -34 13 -81 -1z m105 -73 c37
-36 35 -97 -4 -136 -34 -34 -64 -37 -108 -9 -34 20 -51 69 -38 109 19 62 104
83 150 36z"/>
<path d="M5675 2038 c-11 -6 -26 -18 -32 -26 -11 -14 -13 -13 -13 6 0 18 -6
22 -30 22 l-30 0 0 -145 0 -145 30 0 30 0 0 93 c1 56 5 98 13 108 17 23 52 39
81 39 22 0 26 4 26 30 0 26 -4 30 -27 30 -16 0 -37 -6 -48 -12z"/>
<path d="M6315 2035 c-95 -33 -122 -152 -54 -238 40 -52 138 -60 194 -16 25
20 25 22 9 40 -15 17 -19 17 -33 5 -44 -39 -120 -26 -147 25 l-15 29 115 0
115 0 -6 38 c-6 42 -28 78 -64 103 -36 25 -69 29 -114 14z m102 -67 c42 -39
31 -48 -57 -48 -87 0 -100 10 -60 50 28 28 87 27 117 -2z"/>
<path d="M6634 2039 c-17 -5 -39 -18 -49 -29 -17 -19 -17 -22 -3 -37 15 -14
18 -14 39 1 48 33 129 8 129 -41 0 -16 -9 -18 -69 -15 -60 3 -71 1 -97 -21
-35 -31 -39 -87 -7 -118 28 -29 101 -36 144 -15 39 20 39 20 39 1 0 -9 9 -15
25 -15 l25 0 0 109 c0 103 -2 111 -26 140 -14 17 -42 35 -62 41 -42 11 -46 11
-88 -1z m97 -159 c25 0 25 -30 -2 -64 -41 -52 -133 -25 -114 34 6 20 59 42 83
34 8 -2 22 -4 33 -4z"/>
<path d="M7005 2038 c-11 -6 -25 -19 -32 -27 -11 -14 -12 -13 -13 7 0 18 -6
22 -30 22 l-30 0 0 -145 0 -145 30 0 30 0 0 79 c0 121 24 161 95 161 21 0 25
5 25 30 0 26 -4 30 -27 30 -16 0 -37 -6 -48 -12z"/>
<path d="M7232 2031 c-39 -25 -42 -25 -42 -6 0 9 -9 15 -25 15 l-25 0 0 -145
0 -145 30 0 30 0 0 91 c0 120 15 149 77 149 51 0 63 -27 63 -142 l0 -98 31 0
31 0 -4 120 c-3 113 -4 121 -29 146 -36 35 -94 42 -137 15z"/>
<path d="M7518 2043 l-28 -4 0 -145 0 -144 30 0 30 0 0 150 c0 83 -1 149 -2
149 -2 -1 -15 -4 -30 -6z"/>
<path d="M7728 2032 c-30 -16 -38 -17 -38 -6 0 9 -11 14 -31 14 -24 0 -30 -3
-25 -16 3 -9 6 -74 6 -145 l0 -129 30 0 30 0 0 99 c0 109 11 134 62 147 21 4
33 0 52 -20 24 -24 26 -31 26 -126 l0 -100 30 0 30 0 0 104 c0 58 -4 116 -10
130 -21 56 -102 79 -162 48z"/>
<path d="M8060 2039 c-91 -37 -116 -158 -48 -235 44 -49 122 -58 162 -18 15
14 16 12 16 -24 0 -25 -7 -45 -18 -55 -23 -21 -90 -22 -119 -2 -24 17 -76 10
-70 -9 2 -6 18 -21 37 -33 40 -28 125 -31 170 -8 52 27 60 57 60 230 l0 155
-24 0 c-13 0 -27 -7 -30 -16 -6 -15 -8 -15 -24 -1 -23 20 -81 29 -112 16z
m110 -69 c14 -14 20 -33 20 -64 0 -53 -22 -83 -67 -92 -45 -9 -93 38 -93 91 0
72 90 115 140 65z"/>
<path d="M5230 1931 c0 -102 2 -111 25 -139 31 -37 65 -44 124 -26 25 8 47 14
49 14 1 0 2 -7 2 -15 0 -9 9 -15 25 -15 l25 0 0 145 0 145 -27 0 -28 0 -3 -97
c-2 -110 -14 -133 -67 -133 -54 0 -65 23 -65 133 l0 97 -30 0 -30 0 0 -109z"/>
</g>
</svg>
