<svg width="128" height="128" viewBox="0 0 128 128" fill="none" xmlns="http://www.w3.org/2000/svg">
  <!-- Brain shape -->
  <path d="M64 16C42.4 16 25 33.4 25 55C25 76.6 42.4 94 64 94C85.6 94 103 76.6 103 55C103 33.4 85.6 16 64 16Z" fill="#4F46E5" />
  
  <!-- Brain details -->
  <path d="M64 24C46.3 24 32 38.3 32 56C32 73.7 46.3 88 64 88C81.7 88 96 73.7 96 56C96 38.3 81.7 24 64 24Z" fill="#6366F1" />
  <path d="M64 32C50.7 32 40 42.7 40 56C40 69.3 50.7 80 64 80C77.3 80 88 69.3 88 56C88 42.7 77.3 32 64 32Z" fill="#818CF8" />
  
  <!-- Lightning bolt -->
  <path d="M64 40L48 64H64L56 88L80 60H64L72 40H64Z" fill="#FFFFFF" />
  
  <!-- Text "MindSprint" -->
  <path d="M24 104H28L32 112L36 104H40V120H36V110L32 118L28 110V120H24V104Z" fill="#4F46E5" />
  <path d="M44 104V120H48V114H52C55.3 114 58 111.3 58 108C58 104.7 55.3 102 52 102H44V104ZM48 110V106H52C53.1 106 54 106.9 54 108C54 109.1 53.1 110 52 110H48Z" fill="#4F46E5" />
  <path d="M60 104V120H64V104H60Z" fill="#4F46E5" />
  <path d="M68 104V120H72V114L78 120H84L76 112L84 104H78L72 110V104H68Z" fill="#4F46E5" />
  <path d="M86 104V108H90V120H94V108H98V104H86Z" fill="#4F46E5" />
  <path d="M100 112C100 116.4 103.6 120 108 120C112.4 120 116 116.4 116 112C116 107.6 112.4 104 108 104C103.6 104 100 107.6 100 112ZM104 112C104 109.8 105.8 108 108 108C110.2 108 112 109.8 112 112C112 114.2 110.2 116 108 116C105.8 116 104 114.2 104 112Z" fill="#4F46E5" />
</svg> 